<?xml version="1.0" encoding="utf-8"?>
<!-- Generator: Adobe Illustrator 23.0.1, SVG Export Plug-In . SVG Version: 6.00 Build 0)  -->
<svg version="1.1" id="Calque_1" xmlns="http://www.w3.org/2000/svg" xmlns:xlink="http://www.w3.org/1999/xlink" x="0px" y="0px"
	 viewBox="0 0 248.445 94.659" style="enable-background:new 0 0 248.445 94.659;" xml:space="preserve">
<style type="text/css">
	.st0{fill:none;}
	.st1{fill-rule:evenodd;clip-rule:evenodd;}
	.st2{fill-rule:evenodd;clip-rule:evenodd;fill:#325EA8;}
	.st3{fill-rule:evenodd;clip-rule:evenodd;fill:#FFFFFF;}
</style>
<g>
	<g>
		<g>
			<rect class="st0" width="248.445" height="94.659"/>
		</g>
	</g>
	<g>
		<g>
			<g>
				<path d="M102.981,70.616V57.507h-0.1c-0.466,0.426-2.188,0.465-2.92,0.465h-1.268v0.105c1.465,0.896,1.264,2.225,1.264,3.877
					l0.004,5.547c0,2.775-2.727,4.723-4.922,4.723c-2.893,0-4.096-2.057-4.096-5.369v-9.348h-0.098
					c-0.467,0.426-2.201,0.465-2.933,0.465h-1.255v0.105c1.465,0.896,1.264,2.225,1.264,3.877v5.529
					c0,5.063,2.195,7.469,6.121,7.469c2.327,0,4.719-0.826,5.918-2.803v2.395h4.284v-0.109
					C102.784,73.608,102.981,72.272,102.981,70.616z"/>
				<path d="M109.626,63.606c0.401-2.254,2.064-3.684,4.295-3.684c2.396,0,3.926,1.18,4.291,3.684
					C118.212,63.606,109.626,63.606,109.626,63.606z M121.708,65.694c0.132-4.627-2.963-8.121-7.488-8.121
					c-4.959,0-8.318,3.6-8.318,8.592c0,5.027,3.891,8.857,9.549,8.857c1.564,0,3.162-0.25,4.594-0.891l1.664-3.375h-0.1
					c-1.531,1.301-3.46,1.92-5.459,1.92c-3.76,0-6.588-2.57-6.654-6.982H121.708z"/>
				<path d="M124.349,49.888c0.797,0,2.422-0.049,2.914-0.533h0.1v22.707c0.895,0.25,1.818,0.43,2.742,0.43
					c3.639,0,5.721-2.543,5.721-6.09c0-3.473-1.621-6.16-4.959-6.16c-1.059,0-1.885,0.285-2.777,0.789l1.787-3.059
					c0.758-0.289,1.553-0.398,2.346-0.398c3.772,0,6.977,3.277,6.977,8.185c0,5.621-3.803,9.256-9.82,9.256
					c-2.246,0-4.406-0.397-6.036-0.647v-0.109c1.098-0.506,0.999-1.695,0.999-2.879V54.874c0-1.656,0.199-3.977-1.23-4.877v-0.109
					H124.349z"/>
				<path d="M145.107,63.606c0.398-2.254,2.064-3.684,4.291-3.684c2.396,0,3.928,1.18,4.295,3.684
					C153.693,63.606,145.107,63.606,145.107,63.606z M157.185,65.694c0.135-4.627-2.961-8.121-7.488-8.121
					c-4.955,0-8.314,3.6-8.314,8.592c0,5.027,3.891,8.857,9.547,8.857c1.564,0,3.162-0.25,4.592-0.891l1.664-3.375h-0.098
					c-1.533,1.301-3.463,1.92-5.459,1.92c-3.76,0-6.586-2.57-6.654-6.982H157.185z"/>
				<path d="M172.07,61.69h-0.1c-0.967-1.191-2.564-1.768-4.063-1.768c-3.227,0-5.555,2.449-5.555,5.871
					c0,4.145,3.229,6.883,6.92,6.883c1.697,0,3.561-0.721,4.859-1.768h0.102L172.5,74.31c-1.398,0.57-2.928,0.711-4.394,0.711
					c-5.123,0-9.129-3.607-9.129-8.291c0-6.193,4.473-9.158,9.496-9.158c1.199,0,2.43,0.145,3.596,0.43v3.688H172.07z"/>
				<path class="st1" d="M117.556,54.603c0-1.674,0-3.604,0-3.604c-2.182,0.98-4.206,2.809-5.558,4.588v1.402
					C115.233,54.808,117.556,54.704,117.556,54.603z"/>
				<path d="M72.966,72.546c-5.025,0-8.521-5.67-8.521-10.486c0-0.049,0-0.496,0.002-0.541c0.061-4.666,3.08-9.043,8.353-9.043
					c5.546,0,8.407,5.25,8.453,10.217c0,0.043,0,0.479,0,0.52C81.252,68.511,77.958,72.546,72.966,72.546z M90.188,78.056
					c-3.709,0.607-7.277-0.563-11.066-4.896c3.661-1.84,5.926-6.416,5.926-10.668c0-0.045-0.002-0.484-0.002-0.529
					c-0.065-7.275-5.531-12.08-12.049-12.08c-6.528,0-12.297,5.002-12.347,12.336c0,0.031,0,0.457,0,0.488
					c0,7.137,5.293,12.432,11.78,12.432c0.934,0,1.832-0.145,2.73-0.359c4.25,3.984,8.041,5.676,11.312,5.281
					c1.554-0.186,3.196-0.801,4.181-2.084L90.188,78.056z"/>
			</g>
		</g>
		<g>
			<g>
				<path d="M28.295,20.15l-0.394,1.817h-3.943l-0.437,2.113h3.775l-0.38,1.831h-3.789l-0.845,4.014h-2.605l2.084-9.774
					L28.295,20.15L28.295,20.15z"/>
				<path d="M36.419,25.897c0,2.479-1.803,4.239-4.689,4.239c-2.324,0-3.718-1.282-3.718-3.31c0-2.591,1.746-4.338,4.647-4.338
					C35.011,22.488,36.419,23.784,36.419,25.897z M32.518,24.15c-1.014,0-1.944,1.099-1.944,2.648c0,0.958,0.578,1.634,1.394,1.634
					c1.014,0,1.901-1.099,1.901-2.648C33.87,24.77,33.321,24.15,32.518,24.15z"/>
				<path d="M43.388,24.756c-0.451-0.127-0.817-0.197-1.099-0.197c-1.155,0-1.662,0.718-1.986,2.239l-0.676,3.126h-2.535
					l1.479-7.267h2.296L40.6,23.981c0.704-1.014,1.408-1.493,2.394-1.493c0.31,0,0.62,0.057,0.957,0.155L43.388,24.756z"/>
				<path d="M46.062,26.953c0.099,1.07,0.69,1.563,1.859,1.563c0.774,0,1.633-0.183,2.464-0.549l-0.282,1.789
					c-0.859,0.268-1.76,0.408-2.676,0.408c-2.282,0-3.634-1.338-3.634-3.394c0-1.183,0.507-2.408,1.296-3.183
					c0.761-0.746,1.859-1.141,3.225-1.141c2.014,0,3.113,1.141,3.113,3.127c0,0.409-0.057,0.873-0.169,1.38
					C51.258,26.953,46.062,26.953,46.062,26.953z M47.823,19.658h2.267l1.211,1.859v0.169h-1.563l-0.873-1.098l-1.225,1.098h-1.747
					v-0.169L47.823,19.658z M49.358,25.221c0-0.803-0.493-1.309-1.268-1.309s-1.423,0.605-1.704,1.647h2.943
					C49.344,25.446,49.358,25.333,49.358,25.221z"/>
				<path d="M56.664,22.686h1.789l-0.366,1.732h-1.789l-0.536,2.521c-0.07,0.31-0.098,0.521-0.098,0.634
					c0,0.521,0.225,0.747,0.789,0.747c0.197,0,0.479-0.042,0.831-0.141l-0.366,1.732c-0.578,0.099-1.042,0.155-1.395,0.155
					c-1.507,0-2.366-0.803-2.366-2.197c0-0.253,0.028-0.493,0.071-0.718l0.577-2.732h-1.479l0.366-1.732h1.479l0.366-1.718
					l2.648-0.704L56.664,22.686z"/>
				<path d="M64.521,24.502c-0.718-0.239-1.324-0.408-1.915-0.408c-0.732,0-1.127,0.268-1.127,0.662
					c0,0.507,0.578,0.563,1.493,0.944c1.014,0.422,1.478,0.958,1.478,1.789c0,1.535-1.267,2.634-3.422,2.634
					c-0.986,0-1.943-0.141-2.887-0.465l0.521-1.747c0.69,0.338,1.352,0.493,2.028,0.493c0.831,0,1.268-0.239,1.268-0.648
					c0-0.507-0.422-0.606-1.056-0.859c-1.183-0.479-1.817-0.93-1.817-2.042c0-1.309,1.253-2.38,3.437-2.38
					c0.803,0,1.647,0.155,2.549,0.437L64.521,24.502z"/>
				<path d="M68.688,27.714l-2.084,3.746h-1.972l1.591-3.746H68.688z"/>
				<path d="M82.573,20.15l-0.395,1.817h-3.943l-0.436,2.113h3.774l-0.38,1.831h-3.788l-0.845,4.014h-2.605l2.084-9.774
					L82.573,20.15L82.573,20.15z"/>
				<path d="M89.26,28.094c-0.113,0.521-0.239,1.127-0.296,1.831h-2.098l0.141-1.099c-0.563,0.831-1.422,1.253-2.507,1.253
					c-1.493,0-2.422-0.873-2.422-2.155c0-1.62,1.493-2.634,4.267-2.634c0.366,0,0.761,0.028,1.169,0.071
					c0.014-0.085,0.014-0.17,0.014-0.24c0-0.732-0.479-1.126-1.394-1.126c-0.845,0-1.634,0.183-2.366,0.549l0.296-1.691
					c0.789-0.281,1.577-0.422,2.408-0.422c2.183,0,3.366,0.916,3.366,2.31c0,0.338-0.057,0.789-0.155,1.295L89.26,28.094z
					 M86.5,26.587c-1.352,0-2.057,0.394-2.057,1.127c0,0.478,0.366,0.816,0.93,0.816c0.873,0,1.662-0.704,1.845-1.915
					C86.965,26.587,86.725,26.587,86.5,26.587z"/>
				<path d="M94.44,22.686l-0.76,3.634c-0.056,0.253-0.084,0.493-0.084,0.718c0,0.704,0.338,1.084,0.958,1.084
					c0.915,0,1.62-0.803,1.957-2.38l0.648-3.056h2.535l-1.549,7.239h-2.267l0.281-1.225c-0.817,0.929-1.746,1.408-2.76,1.408
					c-1.493,0-2.366-0.901-2.366-2.521c0-0.479,0.085-1.155,0.268-2.014l0.606-2.887H94.44z"/>
				<path d="M107.719,29.925h-2.521l0.76-3.634c0.056-0.268,0.084-0.507,0.084-0.718c0-0.69-0.352-1.07-0.916-1.07
					c-1,0-1.662,0.789-2,2.366l-0.647,3.056h-2.535l1.549-7.309h2.267l-0.281,1.296c0.817-0.93,1.746-1.409,2.76-1.409
					c1.493,0,2.366,0.916,2.366,2.535c0,0.465-0.085,1.127-0.268,2L107.719,29.925z"/>
				<path d="M112.054,26.953c0.099,1.07,0.69,1.563,1.859,1.563c0.775,0,1.634-0.183,2.465-0.549l-0.282,1.789
					c-0.859,0.268-1.76,0.408-2.676,0.408c-2.282,0-3.634-1.338-3.634-3.394c0-1.183,0.507-2.408,1.296-3.183
					c0.76-0.746,1.859-1.141,3.225-1.141c2.014,0,3.112,1.141,3.112,3.127c0,0.409-0.056,0.873-0.169,1.38
					C117.25,26.953,112.054,26.953,112.054,26.953z M115.35,25.221c0-0.803-0.493-1.309-1.268-1.309
					c-0.774,0-1.422,0.605-1.704,1.647h2.944C115.335,25.446,115.35,25.333,115.35,25.221z"/>
				<path d="M22.324,41.033c0.099,1.07,0.69,1.563,1.859,1.563c0.774,0,1.634-0.183,2.465-0.549l-0.282,1.789
					c-0.859,0.268-1.761,0.408-2.676,0.408c-2.282,0-3.634-1.338-3.634-3.394c0-1.183,0.507-2.408,1.295-3.183
					c0.761-0.747,1.859-1.141,3.226-1.141c2.014,0,3.112,1.141,3.112,3.127c0,0.409-0.056,0.873-0.169,1.38
					C27.52,41.033,22.324,41.033,22.324,41.033z M25.619,39.301c0-0.803-0.493-1.31-1.268-1.31c-0.774,0-1.422,0.605-1.704,1.647
					h2.943C25.605,39.526,25.619,39.414,25.619,39.301z"/>
				<path d="M32.926,36.766h1.789l-0.366,1.732H32.56l-0.535,2.521c-0.07,0.31-0.099,0.521-0.099,0.634
					c0,0.521,0.226,0.747,0.789,0.747c0.197,0,0.479-0.042,0.831-0.141l-0.366,1.732c-0.577,0.099-1.042,0.155-1.394,0.155
					c-1.507,0-2.366-0.803-2.366-2.197c0-0.254,0.028-0.493,0.07-0.718l0.578-2.732h-1.479l0.366-1.732h1.479l0.366-1.718
					l2.647-0.704L32.926,36.766z"/>
				<path d="M43.824,34.23c2.704,0,4.014,0.803,4.014,2.648c0,2.211-1.549,3.605-4.211,3.605c-0.324,0-0.789-0.014-1.395-0.043
					l-0.774,3.564h-2.591l2.07-9.774C40.937,34.23,43.824,34.23,43.824,34.23z M42.613,38.611h0.69c1.282,0,1.986-0.564,1.986-1.465
					c0-0.747-0.535-1.155-1.521-1.155h-0.605L42.613,38.611z"/>
				<path d="M55.088,42.174c-0.112,0.521-0.239,1.127-0.295,1.831h-2.099l0.141-1.099c-0.563,0.831-1.422,1.253-2.507,1.253
					c-1.493,0-2.422-0.873-2.422-2.155c0-1.62,1.493-2.634,4.268-2.634c0.366,0,0.76,0.028,1.169,0.07
					c0.014-0.084,0.014-0.169,0.014-0.239c0-0.732-0.479-1.126-1.395-1.126c-0.845,0-1.634,0.183-2.366,0.549l0.296-1.69
					c0.788-0.282,1.577-0.422,2.408-0.422c2.183,0,3.366,0.916,3.366,2.31c0,0.338-0.056,0.789-0.155,1.296L55.088,42.174z
					 M52.328,40.667c-1.352,0-2.056,0.394-2.056,1.126c0,0.479,0.366,0.817,0.929,0.817c0.874,0,1.662-0.704,1.845-1.915
					C52.793,40.667,52.553,40.667,52.328,40.667z"/>
				<path d="M62.705,38.836c-0.451-0.126-0.817-0.197-1.099-0.197c-1.155,0-1.662,0.718-1.986,2.24l-0.676,3.126H56.41l1.479-7.268
					h2.296l-0.267,1.324c0.704-1.014,1.408-1.493,2.394-1.493c0.31,0,0.62,0.057,0.958,0.155L62.705,38.836z"/>
				<path d="M69.45,38.78c-0.535-0.253-1.056-0.38-1.549-0.38c-1.352,0-2.239,0.845-2.239,2.084c0,1.084,0.718,1.774,1.873,1.774
					c0.465,0,0.93-0.113,1.437-0.338l-0.295,1.916c-0.761,0.197-1.437,0.295-2.07,0.295c-2.225,0-3.591-1.366-3.591-3.366
					c0-2.451,1.76-4.211,4.591-4.211c0.817,0,1.62,0.155,2.422,0.479L69.45,38.78z"/>
				<path d="M76.025,38.583c-0.718-0.239-1.324-0.408-1.916-0.408c-0.732,0-1.126,0.268-1.126,0.662
					c0,0.507,0.577,0.563,1.493,0.944c1.014,0.422,1.479,0.958,1.479,1.789c0,1.535-1.268,2.634-3.422,2.634
					c-0.986,0-1.944-0.141-2.887-0.465l0.521-1.746c0.69,0.338,1.352,0.493,2.028,0.493c0.831,0,1.268-0.24,1.268-0.648
					c0-0.507-0.422-0.605-1.056-0.859c-1.183-0.479-1.817-0.929-1.817-2.042c0-1.31,1.254-2.38,3.437-2.38
					c0.803,0,1.648,0.155,2.549,0.437L76.025,38.583z"/>
			</g>
		</g>
		<g>
			<g>
				<g>
					<rect x="182.097" y="43.93" class="st2" width="20.166" height="12.36"/>
				</g>
			</g>
			<path class="st3" d="M192.181,44.577c-0.146,0.271-0.476,0.66-1.031,1.356c-0.643,0.802-0.533,1.874-0.225,2.507
				c0.348,0.73,0.553,1.34,0.711,1.912c0.221,0.836,0.074,1.955,0.09,1.854h-0.561c0-1.365-0.424-2.648-1.453-3.217
				c-1.461-0.813-2.904,0.594-2.445,2.053c0.242,0.766,0.674,1.025,0.793,1.025c0,0-0.199-0.844,0.412-1.275
				c0.572-0.404,1.281-0.158,1.608,0.324c0.312,0.459,0.361,1.09,0.361,1.09h-1.051v0.775h2.113c0,0-0.059,1.098-1.213,0.988
				c0,0,0.143,0.869,1.213,0.416c0,0-0.059,0.906,0.678,1.359l0,0l0,0c0.734-0.453,0.68-1.359,0.68-1.359
				c1.07,0.453,1.215-0.416,1.215-0.416c-1.16,0.109-1.215-0.988-1.215-0.988h2.111v-0.775h-1.051c0,0,0.051-0.631,0.359-1.09
				c0.328-0.482,1.039-0.729,1.611-0.324c0.609,0.432,0.412,1.275,0.412,1.275c0.121,0,0.549-0.26,0.791-1.025
				c0.459-1.459-0.984-2.865-2.445-2.053c-1.027,0.568-1.453,1.852-1.453,3.217h-0.559c0.014,0.102-0.133-1.018,0.09-1.854
				c0.156-0.572,0.361-1.182,0.709-1.912c0.309-0.633,0.42-1.705-0.225-2.507C192.66,45.237,192.33,44.848,192.181,44.577z"/>
			<g>
				<g>
					<rect x="208.138" y="43.93" class="st2" width="20.172" height="12.36"/>
				</g>
			</g>
			<path class="st3" d="M218.222,44.577c-0.15,0.271-0.476,0.66-1.033,1.356c-0.646,0.802-0.531,1.874-0.225,2.507
				c0.35,0.73,0.549,1.34,0.709,1.912c0.223,0.836,0.076,1.955,0.094,1.854h-0.561c0-1.365-0.424-2.648-1.453-3.217
				c-1.463-0.813-2.906,0.594-2.447,2.053c0.242,0.766,0.672,1.025,0.795,1.025c0,0-0.201-0.844,0.41-1.275
				c0.57-0.404,1.279-0.158,1.607,0.324c0.312,0.459,0.361,1.09,0.361,1.09h-1.051v0.775h2.113c0,0-0.058,1.098-1.213,0.988
				c0,0,0.139,0.869,1.213,0.416c0,0-0.058,0.906,0.68,1.359l0,0l0,0c0.731-0.453,0.674-1.359,0.674-1.359
				c1.076,0.453,1.219-0.416,1.219-0.416c-1.162,0.109-1.219-0.988-1.219-0.988h2.117v-0.775h-1.055c0,0,0.053-0.631,0.361-1.09
				c0.33-0.482,1.041-0.729,1.615-0.324c0.604,0.432,0.41,1.275,0.41,1.275c0.119,0,0.547-0.26,0.787-1.025
				c0.457-1.459-0.988-2.865-2.447-2.053c-1.025,0.568-1.451,1.852-1.451,3.217h-0.557c0.016,0.102-0.133-1.018,0.09-1.854
				c0.156-0.572,0.361-1.182,0.709-1.912c0.305-0.633,0.418-1.705-0.225-2.507C218.701,45.237,218.367,44.848,218.222,44.577z"/>
		</g>
		<g>
			<g>
				<g>
					<rect x="182.097" y="62.175" class="st2" width="20.166" height="12.358"/>
				</g>
			</g>
			<path class="st3" d="M192.181,62.823c-0.146,0.27-0.476,0.66-1.031,1.355c-0.643,0.803-0.533,1.871-0.225,2.508
				c0.348,0.727,0.553,1.336,0.711,1.912c0.221,0.834,0.074,1.951,0.09,1.85h-0.561c0-1.361-0.424-2.648-1.453-3.217
				c-1.461-0.813-2.904,0.598-2.445,2.057c0.242,0.762,0.674,1.023,0.793,1.023c0,0-0.199-0.844,0.412-1.277
				c0.572-0.4,1.281-0.158,1.608,0.324c0.312,0.461,0.361,1.09,0.361,1.09h-1.051v0.779l2.113-0.002c0,0-0.059,1.096-1.213,0.99
				c0,0,0.143,0.865,1.213,0.412c0,0-0.059,0.906,0.678,1.359l0,0l0,0c0.734-0.453,0.68-1.359,0.68-1.359
				c1.07,0.453,1.215-0.412,1.215-0.412c-1.16,0.105-1.215-0.99-1.215-0.99l2.111,0.002v-0.779h-1.051c0,0,0.051-0.629,0.359-1.09
				c0.328-0.482,1.039-0.725,1.611-0.324c0.609,0.434,0.412,1.277,0.412,1.277c0.121,0,0.549-0.262,0.791-1.023
				c0.459-1.459-0.984-2.869-2.445-2.057c-1.027,0.568-1.453,1.855-1.453,3.217h-0.559c0.014,0.102-0.133-1.016,0.09-1.85
				c0.156-0.576,0.361-1.186,0.709-1.912c0.309-0.637,0.42-1.705-0.225-2.508C192.66,63.483,192.33,63.093,192.181,62.823z"/>
			<g>
				<g>
					<rect x="208.138" y="62.175" class="st2" width="20.172" height="12.358"/>
				</g>
			</g>
			<path class="st3" d="M218.222,62.823c-0.15,0.27-0.476,0.66-1.033,1.355c-0.646,0.803-0.531,1.871-0.225,2.508
				c0.35,0.727,0.549,1.336,0.709,1.912c0.223,0.834,0.076,1.951,0.094,1.85h-0.561c0-1.361-0.424-2.648-1.453-3.217
				c-1.463-0.813-2.906,0.598-2.447,2.057c0.242,0.762,0.672,1.023,0.795,1.023c0,0-0.201-0.844,0.41-1.277
				c0.57-0.4,1.279-0.158,1.607,0.324c0.312,0.461,0.361,1.09,0.361,1.09h-1.051v0.779l2.113-0.002c0,0-0.058,1.096-1.213,0.99
				c0,0,0.139,0.865,1.213,0.412c0,0-0.058,0.906,0.68,1.359l0,0l0,0c0.731-0.453,0.674-1.359,0.674-1.359
				c1.076,0.453,1.219-0.412,1.219-0.412c-1.162,0.105-1.219-0.99-1.219-0.99l2.117,0.002v-0.779h-1.055c0,0,0.053-0.629,0.361-1.09
				c0.33-0.482,1.041-0.725,1.615-0.324c0.604,0.434,0.41,1.277,0.41,1.277c0.119,0,0.547-0.262,0.787-1.023
				c0.457-1.459-0.988-2.869-2.447-2.057c-1.025,0.568-1.451,1.855-1.451,3.217h-0.557c0.016,0.102-0.133-1.016,0.09-1.85
				c0.156-0.576,0.361-1.186,0.709-1.912c0.305-0.637,0.418-1.705-0.225-2.508C218.701,63.483,218.367,63.093,218.222,62.823z"/>
		</g>
	</g>
</g>
</svg>
